# generated from PmQm by Jehee Lee
:FULLY-SPECIFIED
:DEGREES
154
root 59.82133761 19.5339 -90.3507668 -173.1651503 62.49372136 -176.6830677
RightUpLeg -90.24781225 -9.898860101 9.325575073
RightLeg 122.8522947 0 0
RightFoot -33.41818827 -13.2975674 -15.14928374
RightToes 1.74622e-010 -3.18055e-015 8.94531e-016
Spine 66.2015 -6.47684 3.1784
Spine1 2.49667 -3.29078 1.45069
HEad -64.6344 -2.35135 15.107
LeftShoulder1 0 -2.69403e-036 -1.28585e-037
LeftArm 1.34782 -49.7589 -88.5589
LeftForeArm 17.5767 -1.31802 -3.48462
LeftHand -0.645436 2.5818 22.129
RightShoulder -2.48481e-017 0 -8.08114e-019
RightArm -5.94325 44.4672 74.7162
RightForeArm 5.46507 7.98303 -2.82326
RightHand 1.73728 -11.8152 -11.9478
LeftUpLeg -38.6775311 -19.27756443 43.07994061
LeftLeg 130.0633816 0 0
LeftFoot -23.99611063 -36.12196371 -6.579519655
LeftToes 4.94765e-010 2.02697e-011 4.00889e-011
155
root 60.68416244 19.2295 -90.3546054 -174.2790992 62.61667628 -179.8213929
RightUpLeg -91.38274819 -9.938844385 9.338231817
RightLeg 125.3533803 0 0
RightFoot -35.6157831 -13.91769497 -15.34544414
RightToes 1.74622e-010 -3.18055e-015 8.94531e-016
Spine 66.8406 -6.89689 4.28568
Spine1 0.481374 -2.73526 0.548654
HEad -66.077 -5.05212 16.1865
LeftShoulder1 0 -2.69403e-036 -1.28585e-037
LeftArm 4.193 -48.3517 -91.4316
LeftForeArm 17.8971 -1.86025 -4.44665
LeftHand -1.42098 1.63312 29.9116
RightShoulder -2.48481e-017 0 -8.08114e-019
RightArm -6.28789 45.7721 71.6117
RightForeArm 5.55984 5.64306 -2.46417
RightHand 1.80466 -12.0387 -12.3536
LeftUpLeg -37.79934299 -18.46901555 42.79623132
LeftLeg 129.5020547 0 0
LeftFoot -23.02372114 -36.85777187 -6.641163192
LeftToes 4.94765e-010 2.02697e-011 4.00889e-011
156
root 61.5996864 18.9517 -90.37838574 -176.1819311 62.71675853 176.3483149
RightUpLeg -92.21210764 -10.14899523 9.073091768
RightLeg 128.003928 0 0
RightFoot -37.40429995 -14.32460693 -15.28550085
RightToes 1.74622e-010 -3.18055e-015 8.94531e-016
Spine 67.2033 -7.47177 5.47004
Spine1 -1.27936 -2.22336 -0.875134
HEad -67.7237 -8.17695 17.1262
LeftShoulder1 0 -2.69403e-036 -1.28585e-037
LeftArm 6.83394 -45.622 -93.4288
LeftForeArm 17.0585 -2.6067 -5.10253
LeftHand -2.13286 0.828788 35.3346
RightShoulder -2.48481e-017 0 -8.08114e-019
RightArm -7.39638 46.6434 67.8587
RightForeArm 4.5728 3.66655 -2.36919
RightHand 1.92462 -12.483 -12.8161
LeftUpLeg -36.20906552 -17.55287872 41.89278913
LeftLeg 128.4502478 0 0
LeftFoot -22.15917536 -37.45185132 -7.009126494
LeftToes 4.94765e-010 2.02697e-011 4.00889e-011
157
root 62.58182451 18.6744 -90.42399449 -178.6971936 62.70551118 172.0733786
RightUpLeg -92.83304242 -10.65560172 8.713477995
RightLeg 130.9636957 0 0
RightFoot -38.63432276 -14.35150598 -14.84175432
RightToes 1.74622e-010 -3.18055e-015 8.94531e-016
Spine 66.9622 -8.06925 6.58555
Spine1 -2.21803 -1.81613 -2.50148
HEad -69.3418 -11.1694 17.6772
LeftShoulder1 0 -2.69403e-036 -1.28585e-037
LeftArm 11.0205 -42.1992 -94.6309
LeftForeArm 14.5901 -7.91825 -3.91044
LeftHand -2.34481 0.582394 36.6238
RightShoulder -2.48481e-017 0 -8.08114e-019
RightArm -8.93983 47.2851 63.882
RightForeArm 2.78058 2.35066 -2.43709
RightHand 1.97004 -12.7329 -12.6645
LeftUpLeg -33.86856928 -16.84388598 40.4794268
LeftLeg 126.8320999 0 0
LeftFoot -21.60508797 -37.99956211 -7.753092825
LeftToes 4.94765e-010 2.02697e-011 4.00889e-011
158
root 63.63331641 18.3846 -90.49759017 178.5976226 62.52898653 167.8907265
RightUpLeg -92.97298512 -11.44970412 8.47002334
RightLeg 134.1543911 0 0
RightFoot -39.40071913 -14.11738195 -13.98096377
RightToes 1.74622e-010 -3.18055e-015 8.94531e-016
Spine 66.3942 -8.53332 7.38366
Spine1 -2.63623 -1.64891 -3.59143
HEad -70.3069 -13.4223 17.6331
LeftShoulder1 0 -2.69403e-036 -1.28585e-037
LeftArm 19.2979 -38.6566 -95.537
LeftForeArm 7.47856 -13.6847 -1.21332
LeftHand -2.31124 0.610899 36.3574
RightShoulder -2.48481e-017 0 -8.08114e-019
RightArm -9.55042 48.0517 61.5975
RightForeArm 0.900145 0.969963 -2.06118
RightHand 2.11902 -13.2417 -13.2916
LeftUpLeg -30.91982036 -16.5630355 38.86607824
LeftLeg 124.7147719 0 0
LeftFoot -21.37791131 -38.52221519 -8.734488057
LeftToes 4.94765e-010 2.02697e-011 4.00889e-011
159
root 64.73335356 18.0913 -90.58516314 176.0280532 62.05013511 164.1363583
RightUpLeg -92.38153346 -12.54575347 8.439345867
RightLeg 137.3124744 0 0
RightFoot -40.0192737 -13.95061585 -12.74394322
RightToes 1.74622e-010 -3.18055e-015 8.94531e-016
Spine 66.162 -8.98338 7.69385
Spine1 -3.44585 -2.02874 -3.74183
HEad -70.4645 -14.2965 17.1504
LeftShoulder1 0 -2.69403e-036 -1.28585e-037
LeftArm 25.65 -34.7573 -95.5152
LeftForeArm 1.50428 -17.229 1.81529
LeftHand -2.41288 0.506845 37.0392
RightShoulder -2.48481e-017 0 -8.08114e-019
RightArm -8.46738 48.4937 62.7004
RightForeArm -0.493424 -0.908089 -1.05448
RightHand 2.79792 -14.8601 -17.3588
LeftUpLeg -28.00873316 -16.80822346 37.39075069
LeftLeg 122.4196119 0 0
LeftFoot -20.97535588 -38.91227244 -9.766711266
LeftToes 4.94765e-010 2.02697e-011 4.00889e-011
160
root 65.87158821 17.7972 -90.64851861 173.6698717 61.09462897 160.6524958
RightUpLeg -91.29585761 -13.94770855 8.685713563
RightLeg 140.2776252 0 0
RightFoot -40.62486152 -14.34889993 -11.30727676
RightToes 1.74622e-010 -3.18055e-015 8.94531e-016
Spine 66.2279 -9.43143 7.31956
Spine1 -4.71894 -3.13611 -2.8304
HEad -70.2964 -13.3827 16.7172
LeftShoulder1 0 -2.69403e-036 -1.28585e-037
LeftArm 32.4205 -30.0016 -94.0337
LeftForeArm -5.98374 -20.7085 6.96394
LeftHand -2.58255 0.296723 37.8907
RightShoulder -2.48481e-017 0 -8.08114e-019
RightArm -6.89548 47.4325 66.3802
RightForeArm -0.78357 -1.47159 -0.588353
RightHand 4.14018 -17.1623 -24.529
LeftUpLeg -25.80372231 -17.47661899 36.1270011
LeftLeg 120.2617303 0 0
LeftFoot -20.02894738 -39.04822807 -10.81123054
LeftToes 4.94765e-010 2.02697e-011 4.00889e-011
161
root 67.07595678 17.493 -90.66800347 171.4447576 59.66360702 157.2053616
RightUpLeg -89.80999896 -15.59023496 9.360771857
RightLeg 143.015585 0 0
RightFoot -41.25170662 -15.8707119 -9.912408077
RightToes 1.74622e-010 -3.18055e-015 8.94531e-016
Spine 65.723 -9.51346 6.04494
Spine1 -5.32274 -4.72213 -0.729526
HEad -70.0486 -11.2355 16.5865
LeftShoulder1 0 -2.69403e-036 -1.28585e-037
LeftArm 40.6259 -25.3617 -91.3309
LeftForeArm -16.6444 -23.9485 15.5439
LeftHand -2.55334 0.236333 37.1337
RightShoulder -2.48481e-017 0 -8.08114e-019
RightArm -6.58985 44.6988 70.0915
RightForeArm 0.556226 -0.820126 -0.602314
RightHand 5.45608 -18.7627 -30.8672
LeftUpLeg -24.09807346 -18.33622385 34.8839718
LeftLeg 118.0676456 0 0
LeftFoot -18.97142355 -38.83034591 -11.71066148
LeftToes 4.94765e-010 2.02697e-011 4.00889e-011
162
root 68.37648523 17.1935 -90.66233341 169.294087 57.99282948 153.7480545
RightUpLeg -87.53954667 -17.43879381 10.46039214
RightLeg 145.3480403 0 0
RightFoot -42.16111929 -18.53763506 -8.675276425
RightToes 1.74622e-010 -3.18055e-015 8.94531e-016
Spine 63.9182 -8.9965 3.92566
Spine1 -4.44423 -6.35634 2.14535
HEad -69.3222 -9.26714 16.4105
LeftShoulder1 0 -2.69403e-036 -1.28585e-037
LeftArm 37.5738 -23.5342 -88.1715
LeftForeArm -15.7889 -26.5969 18.9744
LeftHand -2.36569 0.326741 35.2687
RightShoulder -2.48481e-017 0 -8.08114e-019
RightArm -7.25417 41.538 72.874
RightForeArm 3.59268 2.02429 -1.49586
RightHand 6.05612 -19.2654 -33.8834
LeftUpLeg -22.12243828 -19.05114921 33.42075371
LeftLeg 115.2257055 0 0
LeftFoot -18.38747352 -38.09672072 -12.13037981
LeftToes 4.94765e-010 2.02697e-011 4.00889e-011
163
root 69.74874372 16.9495 -90.65210992 167.4614604 56.45287029 150.339887
RightUpLeg -84.61524138 -19.40147385 11.6993371
RightLeg 146.9645219 0 0
RightFoot -43.41085698 -21.45113047 -7.602928099
RightToes 1.74622e-010 -3.18055e-015 8.94531e-016
Spine 60.8721 -8.22723 1.46516
Spine1 -2.73325 -7.80922 4.67729
HEad -67.8851 -8.39885 15.7132
LeftShoulder1 0 -2.69403e-036 -1.28585e-037
LeftArm 34.574 -25.1847 -85.9576
LeftForeArm -13.8995 -27.3815 19.3883
LeftHand -2.27729 0.348485 34.235
RightShoulder -2.48481e-017 0 -8.08114e-019
RightArm -7.84238 38.8521 75.6472
RightForeArm 6.88916 4.02374 -2.096
RightHand 6.34089 -19.4768 -35.299
LeftUpLeg -19.76823661 -19.22864168 31.66895938
LeftLeg 111.3696316 0 0
LeftFoot -17.8670709 -37.00199077 -12.81772418
LeftToes 4.94765e-010 2.02697e-011 4.00889e-011
164
root 71.09902617 16.8101 -90.59695071 166.4816335 55.69114968 147.2733846
RightUpLeg -82.10702825 -20.84312808 13.2340754
RightLeg 147.5980827 0 0
RightFoot -44.16670131 -23.81465211 -7.068389506
RightToes 1.74622e-010 -3.18055e-015 8.94531e-016
Spine 57.4502 -7.64544 -0.656732
Spine1 -1.47194 -8.85774 6.02936
HEad -66.2266 -8.22076 14.6125
LeftShoulder1 0 -2.69403e-036 -1.28585e-037
LeftArm 33.4248 -29.1789 -84.4102
LeftForeArm -13.4305 -26.8397 19.2017
LeftHand -2.29244 0.282417 34.0324
RightShoulder -2.48481e-017 0 -8.08114e-019
RightArm -8.4102 36.2263 78.9742
RightForeArm 9.78606 4.2655 -2.29869
RightHand 6.83939 -19.9569 -37.2738
LeftUpLeg -17.53719866 -18.72004077 29.88479782
LeftLeg 106.71162 0 0
LeftFoot -16.94641486 -35.96410848 -14.40407754
LeftToes 4.94765e-010 2.02697e-011 4.00889e-011
165
root 72.33041434 16.8501 -90.43143818 166.8786377 56.03319501 145.9776007
RightUpLeg -79.64003516 -21.58962792 15.56779027
RightLeg 146.9328584 0 0
RightFoot -43.69334927 -25.45967983 -7.669401993
RightToes 1.74622e-010 -3.18055e-015 8.94531e-016
Spine 55.3314 -7.53641 -1.60133
Spine1 -1.13881 -9.42564 6.44495
HEad -65.0067 -7.75302 13.7311
LeftShoulder1 0 -2.69403e-036 -1.28585e-037
LeftArm 31.8032 -34.2919 -82.7633
LeftForeArm -13.2617 -26.4113 19.0442
LeftHand -2.17657 0.339617 32.8361
RightShoulder -2.48481e-017 0 -8.08114e-019
RightArm -9.09362 33.2509 82.4202
RightForeArm 12.2661 4.05135 -2.52317
RightHand 7.355 -20.4005 -39.3123
LeftUpLeg -15.49066157 -18.591274 28.76805204
LeftLeg 101.6279634 0 0
LeftFoot -15.42847247 -35.09169663 -16.93479732
LeftToes 4.94765e-010 2.02697e-011 4.00889e-011
166
root 73.43353699 17.0263 -90.30467351 168.3308266 57.05602466 145.6238791
RightUpLeg -77.3874064 -21.92147852 17.27767417
RightLeg 145.6143177 0 0
RightFoot -42.45327227 -25.66648024 -9.248280385
RightToes 1.74622e-010 -3.18055e-015 8.94531e-016
Spine 54.1232 -7.42474 -2.17177
Spine1 -1.31991 -9.80247 7.1555
HEad -64.3477 -6.52859 13.2947
LeftShoulder1 0 -2.69403e-036 -1.28585e-037
LeftArm 30.2113 -40.182 -81.1968
LeftForeArm -13.44 -24.9541 18.2052
LeftHand -1.92535 0.543447 30.6064
RightShoulder -2.48481e-017 0 -8.08114e-019
RightArm -9.50087 30.5052 85.5856
RightForeArm 14.6165 4.18679 -2.75129
RightHand 7.62861 -20.5648 -40.5592
LeftUpLeg -14.03019197 -19.16119953 27.44661288
LeftLeg 96.51058149 0 0
LeftFoot -13.58352978 -33.96661143 -19.70057883
LeftToes 4.94765e-010 2.02697e-011 4.00889e-011
